# xmcd CD database file
#
# Track frame offsets:
#	150
#	40054
#	70362
#	97781
#	134453
#	171385
#	203104
#	245152
#
# Disc length: 3631 seconds
#
# Revision: 0
# Processed by: cddbd v1.5.2PL0 Copyright (c) Steve Scherf et al.
# Submitted via: CDex 1.70beta2
#
DISCID=710e2d08
DTITLE=Dianne Reeves - light up the night - live in marciac
DYEAR=2016
DGENRE=Jazz
TTITLE0=dreams
TTITLE1=minuano (six eight)
TTITLE2=nine
TTITLE3=infant eyes
TTITLE4=all blues
TTITLE5=heavens
TTITLE6=cold
TTITLE7=beautfil
EXTD=YEAR: 2016
EXTT0=
EXTT1=
EXTT2=
EXTT3=
EXTT4=
EXTT5=
EXTT6=
EXTT7=
PLAYORDER=
